<svg width="294" height="35" viewBox="0 0 294 35" fill="none" xmlns="http://www.w3.org/2000/svg">
<line x1="290" y1="15.8182" x2="290" y2="19.1818" stroke="white" stroke-opacity="0.25" stroke-width="8" stroke-linecap="round"/>
<line x1="208.406" y1="15.8182" x2="208.406" y2="19.1818" stroke="white" stroke-opacity="0.25" stroke-width="8" stroke-linecap="round"/>
<line x1="218.5" y1="12.1818" x2="218.5" y2="22.8182" stroke="white" stroke-opacity="0.25" stroke-width="8" stroke-linecap="round"/>
<line x1="228.594" y1="9.90909" x2="228.594" y2="25.0909" stroke="white" stroke-opacity="0.25" stroke-width="8" stroke-linecap="round"/>
<line x1="238.688" y1="4" x2="238.688" y2="31" stroke="white" stroke-opacity="0.25" stroke-width="8" stroke-linecap="round"/>
<line x1="248.782" y1="7.18182" x2="248.782" y2="28.2727" stroke="white" stroke-opacity="0.25" stroke-width="8" stroke-linecap="round"/>
<line x1="4" y1="-4" x2="16.0177" y2="-4" transform="matrix(-0.0420217 0.999117 -0.999925 -0.0122802 194.312 7.72726)" stroke="white" stroke-opacity="0.25" stroke-width="8" stroke-linecap="round"/>
<line x1="258.876" y1="12.1818" x2="258.876" y2="27.3636" stroke="white" stroke-opacity="0.25" stroke-width="8" stroke-linecap="round"/>
<line x1="157.094" y1="7.18182" x2="157.094" y2="28.2727" stroke="white" stroke-opacity="0.25" stroke-width="8" stroke-linecap="round"/>
<line x1="269.812" y1="4" x2="269.812" y2="31" stroke="white" stroke-opacity="0.25" stroke-width="8" stroke-linecap="round"/>
<line x1="167.188" y1="4.90909" x2="167.188" y2="28.2727" stroke="white" stroke-opacity="0.25" stroke-width="8" stroke-linecap="round"/>
<line x1="279.906" y1="9.90909" x2="279.906" y2="25.0909" stroke="white" stroke-opacity="0.25" stroke-width="8" stroke-linecap="round"/>
<line x1="177.282" y1="14.4545" x2="177.282" y2="21" stroke="white" stroke-opacity="0.25" stroke-width="8" stroke-linecap="round"/>
<line x1="4" y1="15.8182" x2="4" y2="19.1818" stroke="white" stroke-width="8" stroke-linecap="round"/>
<line x1="115.035" y1="17.1818" x2="115.035" y2="18.2727" stroke="white" stroke-width="8" stroke-linecap="round"/>
<line x1="14.0941" y1="12.1818" x2="14.0941" y2="22.8182" stroke="white" stroke-width="8" stroke-linecap="round"/>
<line x1="24.1882" y1="9.90909" x2="24.1882" y2="25.0909" stroke="white" stroke-width="8" stroke-linecap="round"/>
<line x1="126.812" y1="14.4545" x2="126.812" y2="20.5454" stroke="white" stroke-width="8" stroke-linecap="round"/>
<line x1="34.2823" y1="4" x2="34.2823" y2="31" stroke="white" stroke-width="8" stroke-linecap="round"/>
<line x1="136.906" y1="4" x2="136.906" y2="31" stroke="white" stroke-width="8" stroke-linecap="round"/>
<line x1="44.3765" y1="7.18182" x2="44.3765" y2="28.2727" stroke="white" stroke-width="8" stroke-linecap="round"/>
<line x1="147" y1="9.90909" x2="147" y2="25.0909" stroke="white" stroke-width="8" stroke-linecap="round"/>
<line x1="54.4706" y1="12.1818" x2="54.4706" y2="27.3636" stroke="white" stroke-width="8" stroke-linecap="round"/>
<line x1="65.4059" y1="4" x2="65.4059" y2="31" stroke="white" stroke-width="8" stroke-linecap="round"/>
<line x1="75.5" y1="9.90909" x2="75.5" y2="25.0909" stroke="white" stroke-width="8" stroke-linecap="round"/>
<line x1="85.5941" y1="4" x2="85.5941" y2="31" stroke="white" stroke-width="8" stroke-linecap="round"/>
<line x1="95.6882" y1="14.4545" x2="95.6882" y2="20.5454" stroke="white" stroke-width="8" stroke-linecap="round"/>
<line x1="104.941" y1="12.6364" x2="104.941" y2="22.3636" stroke="white" stroke-width="8" stroke-linecap="round"/>
<line x1="187.376" y1="13.5455" x2="187.376" y2="23.2727" stroke="white" stroke-opacity="0.25" stroke-width="8" stroke-linecap="round"/>
</svg>
