<svg width="47" height="16" viewBox="0 0 47 16" fill="none" xmlns="http://www.w3.org/2000/svg">
<path d="M10.746 5.432C10.746 6.164 10.578 6.836 10.242 7.448C9.906 8.048 9.39 8.534 8.694 8.906C7.998 9.278 7.134 9.464 6.102 9.464H4.194V14H1.116V1.364H6.102C7.11 1.364 7.962 1.538 8.658 1.886C9.354 2.234 9.876 2.714 10.224 3.326C10.572 3.938 10.746 4.64 10.746 5.432ZM5.868 7.016C6.456 7.016 6.894 6.878 7.182 6.602C7.47 6.326 7.614 5.936 7.614 5.432C7.614 4.928 7.47 4.538 7.182 4.262C6.894 3.986 6.456 3.848 5.868 3.848H4.194V7.016H5.868ZM17.2204 14.144C16.2364 14.144 15.3484 13.934 14.5564 13.514C13.7764 13.094 13.1584 12.494 12.7024 11.714C12.2584 10.934 12.0364 10.022 12.0364 8.978C12.0364 7.946 12.2644 7.04 12.7204 6.26C13.1764 5.468 13.8004 4.862 14.5924 4.442C15.3844 4.022 16.2724 3.812 17.2564 3.812C18.2404 3.812 19.1284 4.022 19.9204 4.442C20.7124 4.862 21.3364 5.468 21.7924 6.26C22.2484 7.04 22.4764 7.946 22.4764 8.978C22.4764 10.01 22.2424 10.922 21.7744 11.714C21.3184 12.494 20.6884 13.094 19.8844 13.514C19.0924 13.934 18.2044 14.144 17.2204 14.144ZM17.2204 11.48C17.8084 11.48 18.3064 11.264 18.7144 10.832C19.1344 10.4 19.3444 9.782 19.3444 8.978C19.3444 8.174 19.1404 7.556 18.7324 7.124C18.3364 6.692 17.8444 6.476 17.2564 6.476C16.6564 6.476 16.1584 6.692 15.7624 7.124C15.3664 7.544 15.1684 8.162 15.1684 8.978C15.1684 9.782 15.3604 10.4 15.7444 10.832C16.1404 11.264 16.6324 11.48 17.2204 11.48ZM23.7974 8.96C23.7974 7.928 23.9894 7.022 24.3734 6.242C24.7694 5.462 25.3034 4.862 25.9754 4.442C26.6474 4.022 27.3974 3.812 28.2254 3.812C28.8854 3.812 29.4854 3.95 30.0254 4.226C30.5774 4.502 31.0094 4.874 31.3214 5.342V0.68H34.3994V14H31.3214V12.56C31.0334 13.04 30.6194 13.424 30.0794 13.712C29.5514 14 28.9334 14.144 28.2254 14.144C27.3974 14.144 26.6474 13.934 25.9754 13.514C25.3034 13.082 24.7694 12.476 24.3734 11.696C23.9894 10.904 23.7974 9.992 23.7974 8.96ZM31.3214 8.978C31.3214 8.21 31.1054 7.604 30.6734 7.16C30.2534 6.716 29.7374 6.494 29.1254 6.494C28.5134 6.494 27.9914 6.716 27.5594 7.16C27.1394 7.592 26.9294 8.192 26.9294 8.96C26.9294 9.728 27.1394 10.34 27.5594 10.796C27.9914 11.24 28.5134 11.462 29.1254 11.462C29.7374 11.462 30.2534 11.24 30.6734 10.796C31.1054 10.352 31.3214 9.746 31.3214 8.978ZM43.0642 14L40.0042 9.788V14H36.9262V0.68H40.0042V8.042L43.0462 3.956H46.8442L42.6682 8.996L46.8802 14H43.0642Z" fill="white"/>
</svg>
