<svg width="46" height="15" viewBox="0 0 46 15" fill="none" xmlns="http://www.w3.org/2000/svg">
<path d="M9.746 5.432C9.746 6.164 9.578 6.836 9.242 7.448C8.906 8.048 8.39 8.534 7.694 8.906C6.998 9.278 6.134 9.464 5.102 9.464H3.194V14H0.116V1.364H5.102C6.11 1.364 6.962 1.538 7.658 1.886C8.354 2.234 8.876 2.714 9.224 3.326C9.572 3.938 9.746 4.64 9.746 5.432ZM4.868 7.016C5.456 7.016 5.894 6.878 6.182 6.602C6.47 6.326 6.614 5.936 6.614 5.432C6.614 4.928 6.47 4.538 6.182 4.262C5.894 3.986 5.456 3.848 4.868 3.848H3.194V7.016H4.868ZM16.2204 14.144C15.2364 14.144 14.3484 13.934 13.5564 13.514C12.7764 13.094 12.1584 12.494 11.7024 11.714C11.2584 10.934 11.0364 10.022 11.0364 8.978C11.0364 7.946 11.2644 7.04 11.7204 6.26C12.1764 5.468 12.8004 4.862 13.5924 4.442C14.3844 4.022 15.2724 3.812 16.2564 3.812C17.2404 3.812 18.1284 4.022 18.9204 4.442C19.7124 4.862 20.3364 5.468 20.7924 6.26C21.2484 7.04 21.4764 7.946 21.4764 8.978C21.4764 10.01 21.2424 10.922 20.7744 11.714C20.3184 12.494 19.6884 13.094 18.8844 13.514C18.0924 13.934 17.2044 14.144 16.2204 14.144ZM16.2204 11.48C16.8084 11.48 17.3064 11.264 17.7144 10.832C18.1344 10.4 18.3444 9.782 18.3444 8.978C18.3444 8.174 18.1404 7.556 17.7324 7.124C17.3364 6.692 16.8444 6.476 16.2564 6.476C15.6564 6.476 15.1584 6.692 14.7624 7.124C14.3664 7.544 14.1684 8.162 14.1684 8.978C14.1684 9.782 14.3604 10.4 14.7444 10.832C15.1404 11.264 15.6324 11.48 16.2204 11.48ZM22.7974 8.96C22.7974 7.928 22.9894 7.022 23.3734 6.242C23.7694 5.462 24.3034 4.862 24.9754 4.442C25.6474 4.022 26.3974 3.812 27.2254 3.812C27.8854 3.812 28.4854 3.95 29.0254 4.226C29.5774 4.502 30.0094 4.874 30.3214 5.342V0.68H33.3994V14H30.3214V12.56C30.0334 13.04 29.6194 13.424 29.0794 13.712C28.5514 14 27.9334 14.144 27.2254 14.144C26.3974 14.144 25.6474 13.934 24.9754 13.514C24.3034 13.082 23.7694 12.476 23.3734 11.696C22.9894 10.904 22.7974 9.992 22.7974 8.96ZM30.3214 8.978C30.3214 8.21 30.1054 7.604 29.6734 7.16C29.2534 6.716 28.7374 6.494 28.1254 6.494C27.5134 6.494 26.9914 6.716 26.5594 7.16C26.1394 7.592 25.9294 8.192 25.9294 8.96C25.9294 9.728 26.1394 10.34 26.5594 10.796C26.9914 11.24 27.5134 11.462 28.1254 11.462C28.7374 11.462 29.2534 11.24 29.6734 10.796C30.1054 10.352 30.3214 9.746 30.3214 8.978ZM42.0642 14L39.0042 9.788V14H35.9262V0.68H39.0042V8.042L42.0462 3.956H45.8442L41.6682 8.996L45.8802 14H42.0642Z" fill="white"/>
</svg>
